<!DOCTYPE svg PUBLIC "-//W3C//DTD SVG 1.1//EN" "http://www.w3.org/Graphics/SVG/1.1/DTD/svg11.dtd">
<!-- Generated by graphviz version 14.1.4 (0)
 -->
<!-- Pages: 1 -->
<svg xmlns="http://www.w3.org/2000/svg" xmlns:xlink="http://www.w3.org/1999/xlink" width="854pt" height="188pt" viewBox="0.00 0.00 854.00 188.00">
  <style>
    @media(prefers-color-scheme: dark){
    :root {
        --color: white;
    }
    }
    @media(prefers-color-scheme: light){
    :root {
        --color: black;
    }
    }
    ellipse, path {
        fill: none;
        stroke: var(--color);
    }
    polygon {
        fill: var(--color);
        stroke: var(--color);
    }
    text {
        fill: var(--color);
        font-family: sans-serif;
    }
    </style>
  <g id="graph0" class="graph" transform="scale(1 1) rotate(0) translate(4 184)">
    <!-- start -->
    <g id="node1" class="node">
      <title>start</title>
      <ellipse cx="423" cy="-162" rx="27" ry="18"/>
      <text xml:space="preserve" text-anchor="middle" x="423" y="-156.95" font-size="14.00">start</text>
    </g>
    <!-- A -->
    <g id="node2" class="node">
      <title>A</title>
      <ellipse cx="27" cy="-90" rx="27" ry="18"/>
      <text xml:space="preserve" text-anchor="middle" x="27" y="-84.95" font-size="14.00">A</text>
    </g>
    <!-- start&#45;&gt;A -->
    <g id="edge1" class="edge">
      <title>start-&gt;A</title>
      <path d="M395.76,-159.73C334.88,-156.29 183.64,-144.48 63,-108 61.39,-107.51 59.76,-106.96 58.12,-106.37"/>
      <polygon points="59.5,-103.15 48.92,-102.54 56.81,-109.62 59.5,-103.15"/>
    </g>
    <!-- B -->
    <g id="node3" class="node">
      <title>B</title>
      <ellipse cx="99" cy="-90" rx="27" ry="18"/>
      <text xml:space="preserve" text-anchor="middle" x="99" y="-84.95" font-size="14.00">B</text>
    </g>
    <!-- start&#45;&gt;B -->
    <g id="edge2" class="edge">
      <title>start-&gt;B</title>
      <path d="M396.23,-158.42C344.66,-152.93 228.4,-138.08 135,-108 133.4,-107.48 131.77,-106.91 130.14,-106.3"/>
      <polygon points="131.54,-103.09 120.96,-102.42 128.81,-109.53 131.54,-103.09"/>
    </g>
    <!-- C -->
    <g id="node4" class="node">
      <title>C</title>
      <ellipse cx="171" cy="-90" rx="27" ry="18"/>
      <text xml:space="preserve" text-anchor="middle" x="171" y="-84.95" font-size="14.00">C</text>
    </g>
    <!-- start&#45;&gt;C -->
    <g id="edge3" class="edge">
      <title>start-&gt;C</title>
      <path d="M396.91,-156.36C355.8,-148.65 273.78,-131.69 207,-108 205.45,-107.45 203.88,-106.86 202.31,-106.23"/>
      <polygon points="203.98,-103.14 193.41,-102.39 201.2,-109.57 203.98,-103.14"/>
    </g>
    <!-- D -->
    <g id="node5" class="node">
      <title>D</title>
      <ellipse cx="243" cy="-90" rx="27" ry="18"/>
      <text xml:space="preserve" text-anchor="middle" x="243" y="-84.95" font-size="14.00">D</text>
    </g>
    <!-- start&#45;&gt;D -->
    <g id="edge4" class="edge">
      <title>start-&gt;D</title>
      <path d="M399.05,-152.91C370.27,-143.03 320.64,-125.46 279,-108 277.49,-107.37 275.94,-106.7 274.39,-106.02"/>
      <polygon points="276.11,-102.96 265.56,-102.01 273.21,-109.33 276.11,-102.96"/>
    </g>
    <!-- E -->
    <g id="node6" class="node">
      <title>E</title>
      <ellipse cx="315" cy="-90" rx="27" ry="18"/>
      <text xml:space="preserve" text-anchor="middle" x="315" y="-84.95" font-size="14.00">E</text>
    </g>
    <!-- start&#45;&gt;E -->
    <g id="edge5" class="edge">
      <title>start-&gt;E</title>
      <path d="M404.19,-148.81C387.41,-137.93 362.61,-121.86 343.41,-109.42"/>
      <polygon points="345.52,-106.61 335.23,-104.11 341.72,-112.49 345.52,-106.61"/>
    </g>
    <!-- F -->
    <g id="node7" class="node">
      <title>F</title>
      <ellipse cx="387" cy="-90" rx="27" ry="18"/>
      <text xml:space="preserve" text-anchor="middle" x="387" y="-84.95" font-size="14.00">F</text>
    </g>
    <!-- start&#45;&gt;F -->
    <g id="edge6" class="edge">
      <title>start-&gt;F</title>
      <path d="M414.65,-144.76C410.42,-136.55 405.19,-126.37 400.42,-117.09"/>
      <polygon points="403.68,-115.79 396,-108.49 397.46,-118.99 403.68,-115.79"/>
    </g>
    <!-- G -->
    <g id="node8" class="node">
      <title>G</title>
      <ellipse cx="459" cy="-90" rx="27" ry="18"/>
      <text xml:space="preserve" text-anchor="middle" x="459" y="-84.95" font-size="14.00">G</text>
    </g>
    <!-- start&#45;&gt;G -->
    <g id="edge7" class="edge">
      <title>start-&gt;G</title>
      <path d="M431.35,-144.76C435.58,-136.55 440.81,-126.37 445.58,-117.09"/>
      <polygon points="448.54,-118.99 450,-108.49 442.32,-115.79 448.54,-118.99"/>
    </g>
    <!-- H -->
    <g id="node9" class="node">
      <title>H</title>
      <ellipse cx="531" cy="-90" rx="27" ry="18"/>
      <text xml:space="preserve" text-anchor="middle" x="531" y="-84.95" font-size="14.00">H</text>
    </g>
    <!-- start&#45;&gt;H -->
    <g id="edge8" class="edge">
      <title>start-&gt;H</title>
      <path d="M441.81,-148.81C458.59,-137.93 483.39,-121.86 502.59,-109.42"/>
      <polygon points="504.28,-112.49 510.77,-104.11 500.48,-106.61 504.28,-112.49"/>
    </g>
    <!-- I -->
    <g id="node10" class="node">
      <title>I</title>
      <ellipse cx="603" cy="-90" rx="27" ry="18"/>
      <text xml:space="preserve" text-anchor="middle" x="603" y="-84.95" font-size="14.00">I</text>
    </g>
    <!-- start&#45;&gt;I -->
    <g id="edge9" class="edge">
      <title>start-&gt;I</title>
      <path d="M446.95,-152.91C475.73,-143.03 525.36,-125.46 567,-108 568.51,-107.37 570.06,-106.7 571.61,-106.02"/>
      <polygon points="572.79,-109.33 580.44,-102.01 569.89,-102.96 572.79,-109.33"/>
    </g>
    <!-- J -->
    <g id="node11" class="node">
      <title>J</title>
      <ellipse cx="675" cy="-90" rx="27" ry="18"/>
      <text xml:space="preserve" text-anchor="middle" x="675" y="-84.95" font-size="14.00">J</text>
    </g>
    <!-- start&#45;&gt;J -->
    <g id="edge10" class="edge">
      <title>start-&gt;J</title>
      <path d="M449.09,-156.36C490.2,-148.65 572.22,-131.69 639,-108 640.55,-107.45 642.12,-106.86 643.69,-106.23"/>
      <polygon points="644.8,-109.57 652.59,-102.39 642.02,-103.14 644.8,-109.57"/>
    </g>
    <!-- K -->
    <g id="node12" class="node">
      <title>K</title>
      <ellipse cx="747" cy="-90" rx="27" ry="18"/>
      <text xml:space="preserve" text-anchor="middle" x="747" y="-84.95" font-size="14.00">K</text>
    </g>
    <!-- start&#45;&gt;K -->
    <g id="edge11" class="edge">
      <title>start-&gt;K</title>
      <path d="M449.77,-158.42C501.34,-152.93 617.6,-138.08 711,-108 712.6,-107.48 714.23,-106.91 715.86,-106.3"/>
      <polygon points="717.19,-109.53 725.04,-102.42 714.46,-103.09 717.19,-109.53"/>
    </g>
    <!-- L -->
    <g id="node13" class="node">
      <title>L</title>
      <ellipse cx="819" cy="-90" rx="27" ry="18"/>
      <text xml:space="preserve" text-anchor="middle" x="819" y="-84.95" font-size="14.00">L</text>
    </g>
    <!-- start&#45;&gt;L -->
    <g id="edge12" class="edge">
      <title>start-&gt;L</title>
      <path d="M450.24,-159.73C511.12,-156.29 662.36,-144.48 783,-108 784.61,-107.51 786.24,-106.96 787.88,-106.37"/>
      <polygon points="789.19,-109.62 797.08,-102.54 786.5,-103.15 789.19,-109.62"/>
    </g>
    <!-- end -->
    <g id="node14" class="node">
      <title>end</title>
      <ellipse cx="423" cy="-18" rx="27" ry="18"/>
      <text xml:space="preserve" text-anchor="middle" x="423" y="-12.95" font-size="14.00">end</text>
    </g>
    <!-- A&#45;&gt;end -->
    <g id="edge13" class="edge">
      <title>A-&gt;end</title>
      <path d="M47.53,-78.04C52.48,-75.75 57.84,-73.56 63,-72 176.8,-37.58 317.84,-25.13 384.57,-20.94"/>
      <polygon points="384.48,-24.45 394.25,-20.36 384.06,-17.47 384.48,-24.45"/>
    </g>
    <!-- B&#45;&gt;end -->
    <g id="edge14" class="edge">
      <title>B-&gt;end</title>
      <path d="M119.57,-78.17C124.52,-75.88 129.87,-73.65 135,-72 222.19,-43.92 329.32,-29.11 385.12,-22.8"/>
      <polygon points="385.16,-26.32 394.72,-21.75 384.4,-19.36 385.16,-26.32"/>
    </g>
    <!-- C&#45;&gt;end -->
    <g id="edge15" class="edge">
      <title>C-&gt;end</title>
      <path d="M192.02,-78.21C196.87,-75.97 202.05,-73.76 207,-72 268.17,-50.3 342.13,-34.25 385.72,-25.78"/>
      <polygon points="386.25,-29.24 395.42,-23.93 384.94,-22.37 386.25,-29.24"/>
    </g>
    <!-- D&#45;&gt;end -->
    <g id="edge16" class="edge">
      <title>D-&gt;end</title>
      <path d="M264.18,-78.62C269.01,-76.35 274.16,-74.03 279,-72 315.93,-56.52 359.13,-40.95 388.51,-30.73"/>
      <polygon points="389.31,-34.15 397.62,-27.58 387.03,-27.54 389.31,-34.15"/>
    </g>
    <!-- E&#45;&gt;end -->
    <g id="edge17" class="edge">
      <title>E-&gt;end</title>
      <path d="M333.81,-76.81C350.59,-65.93 375.39,-49.86 394.59,-37.42"/>
      <polygon points="396.28,-40.49 402.77,-32.11 392.48,-34.61 396.28,-40.49"/>
    </g>
    <!-- F&#45;&gt;end -->
    <g id="edge18" class="edge">
      <title>F-&gt;end</title>
      <path d="M395.35,-72.76C399.58,-64.55 404.81,-54.37 409.58,-45.09"/>
      <polygon points="412.54,-46.99 414,-36.49 406.32,-43.79 412.54,-46.99"/>
    </g>
    <!-- G&#45;&gt;end -->
    <g id="edge19" class="edge">
      <title>G-&gt;end</title>
      <path d="M450.65,-72.76C446.42,-64.55 441.19,-54.37 436.42,-45.09"/>
      <polygon points="439.68,-43.79 432,-36.49 433.46,-46.99 439.68,-43.79"/>
    </g>
    <!-- H&#45;&gt;end -->
    <g id="edge20" class="edge">
      <title>H-&gt;end</title>
      <path d="M512.19,-76.81C495.41,-65.93 470.61,-49.86 451.41,-37.42"/>
      <polygon points="453.52,-34.61 443.23,-32.11 449.72,-40.49 453.52,-34.61"/>
    </g>
    <!-- I&#45;&gt;end -->
    <g id="edge21" class="edge">
      <title>I-&gt;end</title>
      <path d="M581.82,-78.62C576.99,-76.35 571.84,-74.03 567,-72 530.07,-56.52 486.87,-40.95 457.49,-30.73"/>
      <polygon points="458.97,-27.54 448.38,-27.58 456.69,-34.15 458.97,-27.54"/>
    </g>
    <!-- J&#45;&gt;end -->
    <g id="edge22" class="edge">
      <title>J-&gt;end</title>
      <path d="M653.98,-78.21C649.13,-75.97 643.95,-73.76 639,-72 577.83,-50.3 503.87,-34.25 460.28,-25.78"/>
      <polygon points="461.06,-22.37 450.58,-23.93 459.75,-29.24 461.06,-22.37"/>
    </g>
    <!-- K&#45;&gt;end -->
    <g id="edge23" class="edge">
      <title>K-&gt;end</title>
      <path d="M726.43,-78.17C721.48,-75.88 716.13,-73.65 711,-72 623.81,-43.92 516.68,-29.11 460.88,-22.8"/>
      <polygon points="461.6,-19.36 451.28,-21.75 460.84,-26.32 461.6,-19.36"/>
    </g>
    <!-- L&#45;&gt;end -->
    <g id="edge24" class="edge">
      <title>L-&gt;end</title>
      <path d="M798.47,-78.04C793.52,-75.75 788.16,-73.56 783,-72 669.2,-37.58 528.16,-25.13 461.43,-20.94"/>
      <polygon points="461.94,-17.47 451.75,-20.36 461.52,-24.45 461.94,-17.47"/>
    </g>
  </g>
</svg>
