<svg xmlns="http://www.w3.org/2000/svg" id="svg1" width="800" height="800" fill="#000" version="1.1" viewBox="0 0 32 32"><style>@layer default-color,import-color,base,print;@layer default-color{:root{--background-color:rgba(0,0,0,0);--primary-color:blue;--secondary-color:blue}}@layer base{.box{fill:transparent}.primary_color{fill:var(--primary-color)}}</style><style>@import url(&quot;/static/css/icon-colors.css&quot;) layer(import-color);@import url(&quot;/static/css/icon-print.css&quot;) layer(print);</style><a target="_top" href="/"><path d="M0 0h2048v1192H0z" class="box"/><path d="m0 14 2 2h4v14l1 1 1 1h4v-8l1-1 1-1h4l1 1 1 1v8h4l1-1 1-1V16h4l2-2L16 0zm12 0 1-3 3-1 3 1 1 3-1 3-3 1-3-1-1-3z" class="primary_color"/><ellipse id="path2" cx="16.1" cy="14.2" class="primary_color" rx="4.2" ry="4.5"/></a></svg>
